<svg version="1" xmlns="http://www.w3.org/2000/svg" width="353.333" height="353.333" viewBox="0 0 265.000000 265.000000"><path d="M52 9.4c-14.5 3.9-26.1 15.1-30.3 29.4-1.3 4.4-1.6 11.8-1.6 43.5v38.2l3.7-4.2c4-4.6 8.6-6.2 11.3-4.1 2.1 1.7 3.8 5.3 8.4 17.7 3.3 9 4 10.1 4.7 8 3-8 9.9-7.7 18.7.9.7.7 1.5 1.1 1.7.9.4-.4 2.7-13.7 3.9-22.7.3-2.5 1-6.8 1.5-9.5.5-2.8 1.2-7 1.5-9.5.3-2.5.8-5.6 1-7 .3-1.4.7-4.1 1-6 .3-1.9 1-6 1.5-9s1.1-7.7 1.5-10.3c1.1-9.4 2.5-15.1 4.2-16.9 2.1-2.3 7.5-2.3 9.5-.1.9 1 3.2 7.2 5.2 13.8 2 6.6 4.1 13.3 4.6 15 1.6 5.2 9.1 34.8 9.6 38.5 1.8 10.9 2 11.5 3.9 11.8 5.3.8 6.7 1.5 8.4 4.3l1.9 3.1 3.1-4.5c3.4-5 7.1-6.6 10.5-4.4 1.1.8 4.1 4.4 6.6 8.1 3.5 5.1 4.7 6.3 5.5 5.3 4.3-5.8 18-20.7 19.3-21 4.4-.9 7 1.4 11.6 10.1 2.4 4.8 5.4 11.3 6.6 14.5 1.2 3.1 2.3 5.7 2.6 5.7.2 0 2.1-1.8 4.3-4 6.6-6.8 10.3-6.1 17.1 3.5 3 4.3 5 6.2 6.5 6.2 1.1-.1 5.9.2 10.8.6l8.7.8-.1-56.3c-.1-53.1-.2-56.6-2-62.1-5.1-15-16.5-25.3-31.8-28.6-7.7-1.6-148.8-1.4-155.1.3z"/><path d="M91 88c-.1 1.4-.3 3.6-.6 5-.2 1.4-.8 5.2-1.4 8.5-.5 3.3-1.2 7.8-1.5 10-.4 2.2-.8 5.1-1 6.5-.3 1.4-1.6 10.1-3.1 19.5-2.7 17.8-3.9 21.1-7.8 22.1-2.9.7-5.6-.6-11.9-5.9-5.4-4.5-5.7-4.3-7.9 2.6-1.4 4.7-5.9 9.7-8.6 9.7-3.9 0-6.2-3.6-11.8-18-3-8-5.8-14.8-6.3-15.3-.4-.4-2.3 1.2-4.1 3.5-1.9 2.4-3.8 4.4-4.2 4.6-.4.2-.8 7.6-.8 16.5 0 17.8 1.1 23.7 5.6 31.4 8.7 14.9 22.7 22.1 42.4 21.8l8-.2.1 4.6v24c0 10.6.2 19.2.4 19 .2-.2 11.1-11 24.2-23.9l23.8-23.6 38 .1c20.9 0 40.3-.3 43-.8 17.7-3 32.9-18.4 35-35.8.4-3.2.2-3.9-1.2-4-9.2-.6-23.9-2-26.1-2.6-1.2-.3-3.6-2.5-5.3-5l-3.1-4.5-3.2 3c-10.2 9.8-19.7 8.6-20.8-2.6-.3-2.6-2-8.2-3.9-12.5l-3.4-7.8-3.5 3.9c-1.9 2.2-6.1 6.9-9.3 10.6-4.7 5.3-6.4 6.6-8.8 6.6-3.3 0-5-1.5-9.9-8.8-1.9-2.9-3.7-5.2-4-5.1-.3 0-1.8 2.1-3.5 4.7-4.2 6.5-9.5 7.4-13.3 2-1.2-1.7-1.6-1.5-4.5 2.9-3.7 5.6-6.9 6.5-11 3.3-2.6-2.1-2.7-2.5-2.7-11.8 0-8.3-.8-15.7-2.5-24.7-2.1-11.2-6.5-28.9-8.4-33.5l-1-2.5L91 88z"/></svg>