<svg width="21" height="21" viewBox="0 0 21 21" xmlns="http://www.w3.org/2000/svg" xmlns:xlink="http://www.w3.org/1999/xlink"><title>Page 1</title><defs><path id="a" d="M0 20.855h20.855V0H0z"/><path id="c" d="M0 20.855h20.855V0H0z"/></defs><g fill="none" fill-rule="evenodd"><path d="M14.105 12.381c-1.132 1.154-1.724 2.75-1.724 4.482v.4H8.53v-.4c0-1.643-.68-3.281-1.813-4.524-.996-1.064-1.404-2.44-1.226-3.86.32-2.129 2.299-4.13 4.942-4.13 2.766 0 4.988 2.176 4.988 4.793a4.64 4.64 0 0 1-1.315 3.24zM12.42 19.17c0 .443-.362.8-.818.8H9.381a.803.803 0 0 1-.818-.8v-1.022h3.852v1.022h.005zM10.428 3.46c-3.158 0-5.44 2.354-5.801 4.882-.226 1.686.319 3.328 1.45 4.571a5.783 5.783 0 0 1 1.542 3.95l-.005 2.307c0 .932.77 1.685 1.724 1.685h2.222c.953 0 1.724-.753 1.724-1.685l.004-2.307c0-1.507.498-2.886 1.451-3.86a5.483 5.483 0 0 0 1.588-3.86c-.004-3.155-2.682-5.683-5.9-5.683z" fill="#FFF"/><mask id="b" fill="#fff"><use xlink:href="#a"/></mask><path fill="#FFF" mask="url(#b)" d="M9.972 2.128h.907V0h-.907z"/><path fill="#FFF" d="M15.922 4.103l.634.634 1.554-1.494-.638-.634z"/><mask id="d" fill="#fff"><use xlink:href="#c"/></mask><path fill="#FFF" mask="url(#d)" d="M18.633 10.474h2.222v-.89h-2.222z"/><path d="M0 10.474h2.222v-.89H0zm3.367-7.869l-.639.634 1.554 1.494.634-.634z" fill="#FFF"/></g></svg>