<svg width="19" height="17" viewBox="0 0 19 17" xmlns="http://www.w3.org/2000/svg" xmlns:xlink="http://www.w3.org/1999/xlink"><title>new folder</title><defs><path id="a" d="M0 16.24h17.716V.89H0z"/></defs><g fill="none" fill-rule="evenodd"><g transform="translate(.695 .024)"><mask id="b" fill="#fff"><use xlink:href="#a"/></mask><path d="M16.534 4.413v10.652H1.183V4.429h8.263l.117-.004c1.105-.105 1.792-.877 2.11-1.679.305-.767.84-.674.84-.674h4.02v2.341zm0-3.524H12.38c-.651 0-1.401.335-1.753 1.183 0 0-.15 1.083-1.182 1.182H1.183C.53 3.254 0 3.761 0 4.414v10.651c0 .651.53 1.175 1.183 1.175h15.35c.652 0 1.183-.524 1.183-1.175V2.072c0-.653-.531-1.183-1.182-1.183z" fill="#FFF" mask="url(#b)"/></g><path d="M12.506 9.185h-2.365V6.819a.585.585 0 0 0-.588-.587.582.582 0 0 0-.587.587v2.366H6.6a.585.585 0 0 0-.588.587c0 .323.258.586.588.586h2.365v2.367a.588.588 0 0 0 1.175 0v-2.367h2.365a.588.588 0 0 0 0-1.173" fill="#FFF"/></g></svg>