<svg width="45" height="41" viewBox="0 0 45 41" xmlns="http://www.w3.org/2000/svg"><title>upload</title><g fill="none" fill-rule="evenodd"><path d="M44.184 20.005L31.847 7.667l-13.3.619-6.188 2.746L1.91 21.479l19.15 19.148c11.295-1.447 20.442-9.761 23.124-20.622" fill="#CED1CC"/><path d="M26.532 6.052a8.69 8.69 0 0 0-1 .06 8.54 8.54 0 0 0-16.345-.096 6.213 6.213 0 0 0-6.588 6.007A6.214 6.214 0 0 0 6.215 23.29c.484 0 .891.105 1.344 0l18.973-.003c4.715 0 8.538-3.982 8.538-8.697a8.538 8.538 0 0 0-8.538-8.538" fill="#62C8D5"/><path d="M22.509 18.483l-4.457-4.457a1.503 1.503 0 0 0-1.235-.624 1.503 1.503 0 0 0-1.235.624l-4.456 4.457a1.507 1.507 0 0 0 2.13 2.131l2.054-2.053v11.338a1.507 1.507 0 1 0 3.014 0V18.56l2.054 2.053a1.507 1.507 0 1 0 2.13-2.131" fill="#FFF"/></g></svg>