<svg width="30" height="34" viewBox="0 0 30 34" xmlns="http://www.w3.org/2000/svg" xmlns:xlink="http://www.w3.org/1999/xlink"><title>Group 2</title><defs><path id="a" d="M14.663 11.531H.003V.064h29.319V11.53z"/></defs><g fill="none" fill-rule="evenodd"><g transform="translate(.023 22.167)"><mask id="b" fill="#fff"><use xlink:href="#a"/></mask><path d="M26.794 3.438l-.113-.033c-1.66-.458-.884-.898-1.622-1.187C22.437 1.19 21.756.452 21.58.103l-.015-.04H9.093c-.006.014-.01.028-.017.04-.174.35-.856 1.088-3.476 2.115-.739.289-1.3.729-2.96 1.187l-.114.033C1.016 3.95 0 5.39 0 7.015v4.516h29.322V7.015c0-1.625-1.017-3.064-2.528-3.577" fill="#FFF" mask="url(#b)"/></g><path fill="#C8CDD0" d="M18.016 21.47l-5.295-.831-2.229 4.838 4.91 8.222 4.847-7.558-2.233-4.672"/><path fill="#2F424F" d="M16.791 26.14h-2.776l-.872 3.436 2.26 4.123 2.225-4.123-.837-3.435"/><path d="M17.26 23.995l-1.544-2.598a.665.665 0 0 0-.618-.327.67.67 0 0 0-.566.412l-1.13 2.682a.707.707 0 0 0-.056.272v1.704c0 .38.3.687.669.687h2.675c.37 0 .667-.307.667-.687v-1.787a.695.695 0 0 0-.098-.358" fill="#2F424F"/><path d="M10.719 26.043l4.684-2.622 4.932 2.767s1.364-3.73 1.27-3.918l-.016-.039-.022-3.127-6.215-.073-6.214.073-.022 3.127c-.006.013-.01.027-.017.04-.08.162 1.62 3.772 1.62 3.772" fill="#E6E9EA"/><path d="M23.975 13.051c0 5.758-5.34 11.056-8.623 11.056-3.282 0-8.623-5.298-8.623-11.056 0-5.757 3.861-9.555 8.623-9.555 4.762 0 8.623 3.798 8.623 9.555" fill="#E5C3B3"/><path d="M9.525 2.546c1.467-1.365 6.562-3.325 11.286 0 3.727 2.623 3.35 9.236 3.35 9.236s-4.89 1.27-10.49-2.018c-3.62-2.126-4.88.036-5.53 1.919-.632 1.831-1.903 1.368-1.903 1.368S4.833 6.911 9.525 2.546" fill="#2F424F"/><path fill="#FFF" d="M15.403 33.699L9.116 22.23l-1.738 2.176 2.042 1.61-.366 1.547 6.349 6.135"/><path fill="#FFF" d="M15.403 33.699l6.186-11.468 1.824 2.176-2.04 1.61.365 1.547-6.335 6.135"/></g></svg>