<svg width="40" height="40" viewBox="0 0 40 40" xmlns="http://www.w3.org/2000/svg"><title>rewind</title><g fill="none" fill-rule="evenodd"><path d="M2 19.868c0 9.892 8.02 17.911 17.911 17.911 9.892 0 17.912-8.02 17.912-17.911 0-9.892-8.02-17.912-17.912-17.912" stroke="#FFF" stroke-width="3" stroke-linecap="round"/><path d="M18.838 28.24c-1.826 0-3.266-.44-4.32-1.32l1.36-1.88c.92.613 1.907.92 2.96.92.88 0 1.59-.24 2.13-.72.54-.48.81-1.12.81-1.92 0-.733-.203-1.3-.61-1.7-.406-.4-.963-.6-1.67-.6-.866 0-1.6.32-2.2.96l-2.38-1 .42-6.98h7.98v2.3h-5.76l-.22 3.04c.68-.4 1.467-.6 2.36-.6 1.44 0 2.55.44 3.33 1.32.78.88 1.17 1.96 1.17 3.24 0 1.493-.5 2.69-1.5 3.59-1 .9-2.286 1.35-3.86 1.35z" fill="#FFF"/></g></svg>