<svg width="113" height="87" xmlns="http://www.w3.org/2000/svg"><title>Untitled</title><defs><linearGradient x1="0%" y1="50%" x2="100.001%" y2="50%" id="a"><stop stop-color="#007B40" offset="0%"/><stop stop-color="#55B330" offset="100%"/></linearGradient><linearGradient x1="0%" y1="50%" y2="50%" id="b"><stop stop-color="#1D2970" offset="0%"/><stop stop-color="#006DBA" offset="100%"/></linearGradient><linearGradient x1="0%" y1="50%" y2="50%" id="c"><stop stop-color="#6E2B2F" offset="0%"/><stop stop-color="#E30138" offset="100%"/></linearGradient></defs><g fill="none" fill-rule="evenodd"><path d="M112.498 69.17c0 9.663-7.832 17.5-17.5 17.5H0V17.5C0 7.836 7.833 0 17.5 0h94.998v69.17z" fill="#FFF"/><path d="M81.526 44.854h7.3l.12.006c.04.002.08.004.12.008.04.002.08.006.12.01.04.003.083.007.12.012l.123.014.12.018.07.014.05.01a2.66 2.66 0 0 1 .24.068c.04.012.08.026.12.04.04.015.08.03.12.047l.12.06.12.06c.04.02.08.04.12.07l.12.07c.04.03.08.05.12.08l.12.09c.04.03.08.07.12.1l.12.11.12.12.12.13.12.15.12.17c.04.06.08.13.12.19.04.08.08.15.12.23l.12.29c.05.13.09.27.12.41.05.24.08.5.08.77s-.03.53-.09.78c-.03.14-.08.28-.12.41-.04.1-.08.19-.12.28-.04.08-.08.16-.12.23-.04.07-.08.13-.12.19-.04.06-.08.12-.12.17l-.12.15c-.04.05-.08.09-.12.13l-.12.12c-.04.04-.08.07-.13.11l-.12.1-.12.09c-.04.03-.08.06-.13.08-.04.03-.08.05-.12.07-.04.03-.08.05-.12.07l-.12.06-.12.06-.12.05-.12.04-.12.04-.12.03-.05.01-.07.02-.12.02-.12.01-.12.01-.13.01-.12.01H81.5v-6.6zm9.714-7.464a3.316 3.316 0 0 1 0 1.405 2.95 2.95 0 0 1-.362.905c-.038.062-.08.123-.12.18-.04.055-.08.106-.12.157-.04.047-.08.092-.122.136l-.12.12-.12.108c-.04.04-.08.07-.122.1l-.12.09-.12.08-.122.07-.12.07-.12.06a.58.58 0 0 1-.122.05l-.12.05-.12.04-.122.04-.12.03-.12.03-.03.01-.09.02c-.037.01-.078.01-.122.02-.038.01-.08.01-.12.01-.04.01-.08.01-.12.01l-.122.01c-.042 0-.082 0-.12.01h-6.58v-6.1h6.7l.12.01h.12l.12.01.12.01.093.01h.03l.12.03.12.03.12.03.122.04.12.05.12.05.12.06.12.06.12.07c.04.02.08.05.12.08l.12.09.12.09c.04.03.08.07.12.1l.12.12.12.14.12.15.12.18c.04.07.08.15.12.22.04.09.08.18.12.28.05.13.09.27.12.41zM106.2 5.834h.05v62.502a12.667 12.667 0 0 1-.532 3.616l-.12.38c-.04.114-.08.228-.122.34l-.12.313-.12.29c-.04.09-.08.18-.122.27l-.12.257-.12.24c-.04.078-.08.154-.122.23l-.12.217-.12.2-.122.2-.12.19-.12.18c-.04.06-.08.11-.122.17l-.12.17-.12.16-.122.16-.12.15-.12.15c-.04.05-.08.09-.122.14l-.12.14-.12.14c-.04.04-.08.09-.122.13l-.12.13-.12.12-.122.12-.12.12-.12.11-.12.11-.122.11-.12.11-.12.1-.122.1-.12.1-.12.09-.122.09-.12.09-.12.09-.122.08c-.04.03-.08.05-.12.08l-.12.09a.85.85 0 0 1-.122.08c-.04.03-.08.06-.12.08l-.12.08-.122.08-.12.07-.12.07-.122.07-.12.07-.12.07-.122.06-.12.06-.12.06-.122.06-.12.06-.12.05-.122.05-.12.05-.12.05-.122.05-.12.05-.12.04-.122.04-.12.04c-.04.01-.08.03-.12.04l-.122.04-.12.04-.12.03-.122.04-.12.034c-.04.01-.08.024-.12.035l-.122.03-.12.03-.12.03-.122.03-.12.03-.12.026-.122.03-.12.02-.12.02-.12.02-.122.02-.12.02-.12.02-.122.02-.12.02-.12.02-.122.01-.12.01-.12.01c-.042 0-.082.01-.122.01l-.12.01h-.12l-.122.01-.12.006h-.482l-.026.002H75.414v-25.4H94.86l.12-.01.12-.004h.24l.122-.01h.12l.12-.01.122-.01.12-.01.12-.01.122-.02.12-.01.12-.02.122-.016.12-.01.12-.02.122-.02.12-.02.12-.02.122-.02.12-.03.12-.03.122-.03.12-.03.12-.03.122-.03.12-.04.12-.04.122-.04.12-.04.12-.04c.04-.01.082-.03.12-.05l.122-.05.12-.05c.04-.02.082-.03.122-.05l.12-.05.12-.06.12-.06.122-.06.12-.07.12-.07.122-.07c.04-.03.08-.05.12-.08l.12-.08.122-.08.12-.09c.04-.03.082-.06.12-.09.042-.03.082-.068.122-.1l.12-.1c.04-.03.082-.07.12-.107l.122-.11.12-.115c.042-.04.082-.08.12-.126l.122-.13.12-.14c.042-.05.082-.1.12-.15l.122-.16.12-.18c.042-.07.082-.13.12-.198.043-.07.083-.14.122-.21.042-.08.082-.16.12-.24.043-.09.083-.18.12-.275a5.14 5.14 0 0 0 .362-1.36 5.887 5.887 0 0 0 .001-1.586c-.02-.21-.06-.41-.12-.61-.03-.13-.07-.26-.12-.39-.03-.1-.07-.21-.12-.31l-.12-.26-.12-.23-.12-.204-.12-.19-.12-.17-.12-.16-.12-.15-.12-.14-.12-.13-.12-.12-.12-.11-.12-.1c-.04-.04-.08-.07-.12-.104l-.12-.096-.12-.1-.12-.09-.12-.08-.12-.08c-.04-.03-.08-.05-.12-.08-.04-.02-.08-.05-.12-.07-.04-.03-.08-.05-.12-.07l-.12-.07-.12-.07-.12-.06-.12-.06c-.04-.02-.08-.04-.12-.05l-.12-.055-.12-.05-.12-.05-.12-.05-.12-.05-.12-.045c-.04-.01-.08-.03-.12-.04l-.12-.04-.12-.04-.12-.03-.12-.036-.12-.04-.12-.03-.12-.03-.12-.03-.12-.03-.12-.03c-.04-.01-.08-.02-.12-.023l-.12-.02-.12-.03-.12-.02-.12-.02-.12-.012-.12-.01-.12-.015-.12-.01-.12-.01-.12-.01-.12-.01-.11-.01V43l.11-.02.12-.02.12-.02.12-.024.12-.026.12-.024.12-.02.13-.03c.04-.01.08-.02.12-.034l.12-.03c.04-.01.08-.02.12-.032l.12-.034.12-.04.13-.042.12-.04.12-.047c.04-.02.09-.03.13-.05.04-.02.08-.03.12-.05l.12-.06.12-.055.12-.06.12-.06.12-.07.12-.07.12-.07.12-.08.12-.08.12-.085.12-.09.12-.09.12-.095.12-.103c.04-.04.08-.07.12-.11l.12-.12c.05-.04.09-.08.12-.12l.13-.14.12-.14.12-.15.12-.16.12-.18.12-.19c.04-.07.09-.15.12-.22.05-.08.09-.16.12-.24.05-.09.09-.18.12-.27.05-.11.09-.22.13-.33.05-.14.09-.28.12-.43.06-.23.1-.47.12-.72a6.078 6.078 0 0 0 0-1.19c-.02-.25-.06-.5-.12-.73a3.03 3.03 0 0 0-.12-.43 2.19 2.19 0 0 0-.12-.33l-.12-.27c-.04-.08-.08-.16-.12-.23l-.12-.21-.12-.19c-.04-.06-.08-.11-.12-.17l-.12-.16-.12-.14-.12-.14-.12-.13-.12-.12-.12-.11-.12-.11-.12-.1-.12-.1-.12-.09-.12-.08a.834.834 0 0 0-.12-.08l-.12-.08-.12-.078-.12-.07-.12-.06-.12-.06-.12-.06-.12-.06-.12-.05-.12-.05-.12-.05-.12-.05-.12-.04-.12-.04-.12-.04-.12-.04-.12-.04-.12-.04-.12-.04-.12-.03-.12-.03-.12-.03-.12-.03-.12-.03-.12-.02-.12-.03-.12-.02-.12-.02-.12-.02-.12-.02-.12-.01-.12-.01-.12-.01-.12-.01-.12-.01-.12-.01-.12-.01-.12-.006h-.12l-.12-.01-.12-.004-.12-.01-.12-.01-.12-.01-.12-.003-.12-.01H75.43v-13a12.56 12.56 0 0 1 .38-3.076c.04-.15.08-.3.123-.44.038-.14.078-.26.12-.39l.12-.35c.04-.11.08-.22.122-.32l.12-.3.12-.28.12-.26.12-.243.12-.23c.04-.08.08-.15.122-.22l.12-.22.12-.2.12-.197.12-.19.12-.18c.04-.06.08-.12.125-.17l.12-.17.12-.16.122-.157.12-.15.12-.15.12-.14.12-.14.12-.138.12-.13.12-.13.12-.12.12-.12.12-.12.12-.11c.04-.04.08-.076.12-.11l.12-.11.12-.105.12-.1.125-.1.12-.1.12-.09.12-.09.12-.09.12-.09.12-.09.12-.09.12-.08.12-.08.12-.08.12-.074.12-.076.12-.07c.04-.02.08-.05.12-.07l.12-.07.12-.07.12-.06.12-.06.12-.06.12-.06.12-.06c.04-.02.08-.04.12-.056l.12-.06.12-.06.12-.056.12-.05.12-.05.12-.05.12-.05.12-.05c.04-.01.08-.03.12-.04.04-.017.08-.03.12-.04l.12-.04.12-.04.12-.04.12-.036.12-.03.12-.03.12-.034.12-.03.12-.03.12-.03.12-.02.12-.02.12-.03.12-.02.12-.03c.04 0 .08-.01.12-.02l.12-.02.12-.01c.04-.01.08-.01.12-.02l.12-.02.12-.01.12-.01.12-.01.12-.01.12-.01.12-.01.12-.01.12-.01h.12l.12-.01.12-.01h18.58z" fill="url(#a)"/><path d="M6.508 49.33c-.086-.04-.172-.08-.26-.123V18.335a12.54 12.54 0 0 1 .5-3.516l.12-.39c.04-.12.08-.24.122-.35l.12-.32.12-.3.12-.28.122-.26.12-.24.12-.23.12-.22.12-.21c.04-.07.08-.14.122-.21l.12-.2.12-.19.12-.18c.04-.06.08-.12.122-.18l.12-.17.12-.16.12-.16.12-.15a8.031 8.031 0 0 1 .242-.29l.12-.14.12-.14.12-.13.122-.13.12-.13.12-.12.12-.12.122-.12.12-.11.12-.11.12-.11.12-.1.122-.1c.04-.03.08-.07.12-.1l.12-.1.12-.1.122-.09.12-.09.12-.09.12-.08.12-.08.122-.08.12-.08.12-.08.12-.08.122-.07.12-.08.12-.06.12-.06.12-.07.122-.07.12-.06.12-.06.12-.06.122-.06.12-.06.12-.06.12-.05.12-.05.122-.05.12-.046.12-.048.12-.05c.04-.02.082-.03.122-.04.04-.02.08-.03.12-.04l.12-.04.12-.04.12-.04.122-.04.12-.04.12-.03.12-.03.122-.03.12-.03.12-.03.12-.03.12-.02.122-.02.12-.02.12-.02.12-.02.122-.02.12-.02.12-.016.12-.02.12-.01.122-.01.12-.01.12-.01.12-.01.12-.01.122-.01c.04 0 .08 0 .12-.006l.12-.01h.12l.122-.01H37.08l.002 62.5c0 .54-.035 1.08-.103 1.605l-.12.75c-.04.19-.08.373-.13.56l-.12.47-.12.4-.12.36-.12.33-.12.3-.12.28-.12.26-.12.25-.12.23-.12.23-.12.21-.12.204-.12.2-.12.19-.12.18-.12.18-.12.17-.12.16-.12.154-.12.16-.12.15-.12.143c-.04.05-.08.1-.13.14l-.12.14-.12.13-.12.13-.12.12-.12.12-.12.12c-.04.04-.08.08-.12.11l-.12.11-.12.11-.12.1-.12.1-.12.1-.12.1-.12.09c-.04.03-.08.06-.12.096l-.12.09-.12.09-.12.09-.12.08-.12.08c-.04.03-.08.05-.12.08l-.12.08-.13.08-.12.07-.12.07-.12.07-.12.07c-.04.02-.08.05-.12.07l-.12.07-.12.066-.12.06-.12.06-.12.06-.12.06c-.04.02-.08.04-.12.055l-.12.06-.12.05-.12.05c-.04.02-.08.04-.12.05l-.12.05-.12.05-.12.04c-.04.02-.08.03-.12.04l-.12.05-.12.04-.12.04-.12.04-.12.03-.12.04-.13.03-.12.036-.12.03-.12.03-.12.03-.12.03-.12.02-.12.03-.12.03-.12.02-.12.02c-.04.01-.08.02-.12.02-.04.01-.08.02-.12.02l-.12.02-.12.02-.12.02-.12.018-.12.013-.12.01-.12.01-.12.01-.12.01-.12.01-.13.004-.12.007-.12.003H6.25V54.5l.26.065.12.03.12.03.12.024.122.03.12.02.12.03.12.03.122.03.12.02.12.02.12.02.12.02.122.02.12.03.12.02.12.02.122.02.12.02.12.02.12.03.12.02.122.02.12.03.12.02.12.02.12.02.122.02.12.02.12.02.12.02.122.02.12.02.12.02.12.02.12.02.122.02.12.02.12.02.12.02.122.02.12.013.12.02.12.02.12.012.122.02.12.02.12.01.12.01.122.012.12.01.12.01.12.01.12.02.122.015.12.015.12.01.12.016.122.01.12.01.12.01.12.015.12.01.122.01.12.015.12.01.12.01.122.01.12.01.12.01.12.01.12.01.122.01.12.01.12.01.12.01.122.01.12.01.12.002h.12l.12.01.122.002.12.01h.12l.12.01.122.01.12.01h.24l.12.01h.724l.12.01h1.566l.12-.01h.362l.12-.006h.12l.12-.005.12-.007.122-.01h.12l.12-.01.12-.01.122-.01.12-.01.12-.01.12-.01.12-.01.122-.01.12-.01h.12l.12-.01.122-.01.12-.01.12-.01.12-.01.12-.01.122-.013.12-.01.12-.02.12-.018.122-.01.12-.02.12-.02.12-.015.12-.02.122-.02.12-.02.12-.01.12-.014.122-.02.12-.02.12-.02.12-.02.12-.02.122-.02.12-.03.12-.02.12-.02.122-.03.12-.022.12-.02.12-.03.12-.03.122-.03c.04-.01.08-.02.12-.02l.12-.03.12-.03.122-.03.12-.03.12-.03.12-.03.12-.03c.04-.01.082-.02.122-.04l.12-.032.12-.04.12-.033.12-.04.122-.04.12-.04.12-.045.12-.04.122-.04.12-.05.12-.05.12-.05.12-.05.122-.05.12-.05.12-.057.12-.06.122-.06.12-.06.12-.06.12-.06.12-.06.122-.064.12-.07c.04-.02.08-.05.12-.07l.12-.07.122-.08.12-.08.12-.08.12-.08.12-.09.122-.09.12-.09.12-.096.12-.1.122-.1.12-.11.12-.11.12-.11c.042-.04.082-.08.12-.12l.122-.12.12-.13.12-.14.12-.14.122-.144.12-.154.12-.16.12-.17c.042-.06.082-.12.12-.18.042-.06.082-.12.122-.19l.12-.2.12-.22c.042-.08.082-.16.12-.24.043-.09.083-.17.12-.26.043-.1.084-.197.122-.29a10.934 10.934 0 0 0 .24-.7c.044-.15.085-.3.12-.45a9.36 9.36 0 0 0 .122-.566 11.864 11.864 0 0 0 .18-2.1V31.3H23.76v14.51a7.392 7.392 0 0 1-.15 1.485 6.472 6.472 0 0 1-.24.85 8.71 8.71 0 0 1-.12.304l-.12.26c-.04.08-.08.15-.122.23-.038.07-.08.14-.12.21l-.12.19-.12.17-.12.16c-.04.05-.08.1-.122.14l-.12.14-.12.13-.12.12-.122.12-.12.1c-.04.03-.08.07-.12.1l-.12.09-.12.09c-.04.03-.08.06-.122.08l-.12.08-.12.07c-.04.02-.08.05-.12.07l-.122.07-.12.06-.12.06-.12.06c-.04.02-.08.03-.12.05a.58.58 0 0 1-.122.05l-.12.05-.12.05-.12.04-.122.04-.12.04-.12.04-.12.03-.12.03-.122.03c-.04.01-.08.02-.12.02l-.12.02c-.04.01-.08.01-.12.02l-.122.02-.12.02-.12.02-.12.01-.12.02-.122.01-.12.01-.12.01-.12.01h-.242l-.12.01h-.24l-.048.01h-.31l-.12.01h-.12l-.122-.01-.12-.008-.12-.003-.12-.01-.122-.01-.12-.01-.12-.01-.12-.01-.12-.01-.122-.01-.12-.01-.12-.02-.12-.01-.12-.014-.12-.02-.12-.014-.12-.02-.12-.014-.123-.02-.12-.02-.12-.02-.12-.02-.12-.02-.12-.02-.12-.02-.12-.02-.12-.02-.12-.02-.12-.02-.12-.02-.12-.03-.12-.028-.12-.03-.12-.03-.12-.03-.12-.03-.12-.03-.12-.03-.12-.03-.12-.032-.12-.03-.12-.03-.12-.04-.12-.03-.12-.04-.12-.034-.12-.03-.12-.04-.12-.04-.12-.04-.12-.04-.12-.04-.12-.04-.12-.04-.12-.04-.12-.04-.12-.04-.12-.04-.12-.044-.12-.04-.12-.05-.12-.05-.12-.046-.12-.05-.12-.04-.12-.05-.12-.045-.12-.05-.12-.05-.12-.05-.12-.05-.12-.05-.12-.05-.12-.06-.12-.05-.12-.05-.12-.053-.12-.06L7 49.5l-.12-.057-.12-.06-.12-.058-.12-.05z" fill="url(#b)"/><path d="M41.09 34.485c-.087.07-.173.143-.257.215V18.335c0-.87.09-1.72.258-2.54.04-.176.08-.35.13-.524.04-.14.08-.29.12-.44l.12-.39.12-.35.12-.32c.04-.1.08-.2.12-.29l.12-.27.12-.26.12-.24c.04-.08.08-.15.12-.23l.12-.22.12-.21.12-.2.12-.19.12-.18.12-.18.12-.17.12-.16.12-.16.12-.16.12-.15.12-.14.12-.14.13-.14.12-.14.12-.13.12-.12.12-.12.12-.12.12-.11.12-.11.12-.11.12-.11.12-.11.12-.1.12-.1c.04-.03.08-.07.12-.1l.12-.1.12-.09.12-.09.12-.09c.04-.03.08-.06.12-.08l.12-.08.12-.08.12-.08.13-.07.12-.07.12-.07.12-.07c.04-.02.08-.05.12-.07l.12-.07.12-.06.12-.06.12-.06.12-.06.12-.06.12-.06.12-.06.12-.06.12-.05.12-.05.12-.05.12-.05.12-.05.12-.05.12-.04.12-.04.12-.04.12-.04.12-.04.12-.03.12-.04.13-.03.12-.03.12-.03.12-.03.12-.03.12-.03.12-.02.12-.02.12-.03.12-.02.12-.02.12-.02.12-.02.12-.02.12-.02.12-.02.12-.01.12-.01.12-.02.12-.01.12-.01.12-.01h.12l.13-.01.12-.01h18.88v62.51c0 .54-.03 1.08-.1 1.6-.03.26-.07.51-.12.75l-.12.57-.12.46-.12.4-.12.36-.12.33-.12.3-.12.28-.12.27-.12.25-.12.24-.12.23-.12.21-.12.21-.12.19-.12.185-.12.18-.12.17-.12.17-.12.166-.12.16-.12.153-.12.15-.12.14-.12.14-.12.13-.12.13-.12.13-.12.12-.12.12-.12.12-.12.11-.12.11-.12.11-.12.1-.12.1c-.04.03-.08.07-.12.1l-.12.1-.12.09-.12.093-.12.09-.12.09-.12.09c-.04.03-.08.06-.12.085l-.12.08-.12.08-.12.08-.12.08-.12.08-.12.07c-.04.02-.08.05-.12.07l-.12.07-.12.07-.12.07-.12.064-.12.06-.12.06-.12.06-.12.056c-.04.02-.08.04-.12.055l-.12.05-.12.053L64 80l-.12.05-.12.05-.12.043-.12.04c-.04.02-.08.03-.12.05l-.12.05-.12.04-.12.04-.12.04c-.04.01-.08.028-.12.04l-.12.03-.12.04-.12.038-.12.03-.12.03-.12.03-.12.03-.12.03-.12.03-.12.03-.12.03-.12.02c-.04.01-.08.01-.12.02-.04.01-.08.01-.12.02l-.12.02-.12.01-.12.02-.12.01-.12.02c-.04.01-.08.01-.12.01l-.12.02-.12.01-.12.01-.12.01-.12.01c-.04 0-.08.01-.12.01l-.12.01-.12.006h-18.6V52c.09.072.17.143.26.214.04.03.08.063.12.095l.12.09.12.09.12.09.12.08c.04.03.08.05.12.08l.12.08.12.08.12.08.13.08.12.07.12.07.12.07.12.07.13.07.12.063.12.064.12.063.12.06.12.06.12.06.12.06.12.05.12.05.12.05.12.05.12.05.13.05.12.05.12.05.12.05.12.05.12.04.12.05.12.04.12.04.13.04.12.04.12.04c.04.01.08.03.12.04l.12.04.13.04.12.04.12.03.12.04.12.03.12.04.12.03.12.03.12.03.12.03.12.03.12.03.12.03.12.03.12.02.12.03.12.03.12.02.12.02.12.02.12.02.12.02.12.02.12.024.12.02.12.02.12.02.12.02.12.02.12.02.12.02.12.02.12.02.12.02.12.02.12.02.12.02.12.01.12.01.12.01.12.02.12.01.12.017.12.014.12.01.12.01.12.01.12.01.12.01.12.01.12.01.12.01.12.01.12.01.12.01.12.01.12.01.12.01h.12l.12.002.12.01.12.01.12.01h.48l.12.003h.36l.12.01h.12l.12.01h1.8l.12-.007h.36l.12-.01.12-.01h.24l.12-.007h.12l.12-.01h.12l.12-.004.06-.01h.06l.12-.01.12-.01.12-.01.12-.01.12-.01h.12l.12-.01.12-.01.12-.01.12-.01.12-.01.12-.01.12-.01.12-.01.12-.01.12-.01.12-.01.12-.01.12-.02.12-.01.12-.01.12-.02.12-.01.12-.01.12-.01.12-.02.12-.014.12-.02.12-.01.12-.016.12-.02.12-.01.12-.013.12-.02.12-.017.12-.016.12-.02.12-.018.12-.02.12-.02.12-.017.12-.02.12-.02.12-.02.12-.02.12-.02.12-.02.12-.02.12-.02.12-.024.12-.02.12-.02.12-.02.12-.02.12-.02.12-.02.12-.03.12-.02.12-.023.12-.02.12-.027.12-.02.12-.03.12-.03.12-.023.12-.023.12-.02.12-.02.12-.03.12-.02.12-.02.12-.025.12-.025.12-.03.12-.03.12-.03.12-.03.12-.03.12-.03.12-.03.12-.03v-5.2l-.12.06-.12.06-.12.058-.12.06-.12.06-.12.06-.12.055-.12.055-.12.058-.12.056-.12.06-.12.06-.12.06-.12.05-.12.05-.12.05-.12.05-.12.05-.12.05-.12.05-.12.05-.12.05-.12.05-.12.05-.12.05-.12.05-.12.04-.12.05-.12.04-.12.04-.12.04-.12.04-.12.04-.12.04-.12.04-.12.04-.12.04-.12.04-.12.04-.12.04-.12.04-.12.03-.12.04-.12.03-.12.03-.12.03-.12.03-.12.03-.12.03-.12.03-.12.03-.12.03-.12.03-.12.03-.12.03-.12.03-.12.02-.12.027-.12.03-.12.02-.12.02-.12.02-.12.02-.12.02-.128.02-.12.02-.12.02-.12.017-.12.02-.123.018-.12.02-.12.01-.12.01-.12.01-.12.01H59l-.12.01-.12.01h-.12l-.12.01-.12.01-.12.007-.12.01h-.12l-.12.002h-1.08l-.12-.01-.12-.01-.12-.01-.12-.01-.12-.01-.12-.01L56 52l-.12-.01-.12-.02-.12-.01-.12-.015-.12-.02-.12-.02-.12-.02-.12-.02-.13-.02-.12-.025-.12-.02-.12-.03-.12-.03-.12-.03-.12-.026-.12-.03-.12-.03-.12-.04c-.04-.01-.08-.025-.12-.037l-.12-.04-.12-.03c-.04-.01-.08-.03-.12-.04l-.12-.04c-.04-.012-.08-.03-.12-.04L53 51.3c-.04-.016-.08-.03-.12-.05-.04-.015-.08-.03-.12-.05l-.12-.05-.12-.05-.12-.06c-.04-.02-.08-.035-.12-.055l-.12-.06-.12-.06c-.04-.02-.08-.04-.12-.062l-.12-.064-.12-.07-.12-.08-.12-.07a.834.834 0 0 0-.12-.08c-.045-.03-.08-.06-.12-.08l-.125-.09-.12-.09-.12-.1-.12-.1c-.04-.03-.08-.07-.12-.1l-.12-.11-.12-.11-.12-.12-.12-.12-.12-.13-.12-.13-.12-.14a1.97 1.97 0 0 1-.12-.15c-.044-.05-.084-.1-.124-.16l-.12-.16-.12-.17c-.04-.06-.08-.13-.12-.19l-.12-.2c-.04-.07-.08-.15-.12-.22l-.12-.24c-.04-.09-.08-.17-.12-.26l-.12-.29-.12-.33c-.04-.12-.08-.24-.12-.37-.04-.14-.08-.29-.12-.44-.04-.18-.08-.37-.12-.57-.05-.28-.09-.58-.12-.88-.03-.35-.05-.71-.05-1.08 0-.37.02-.73.05-1.08.03-.31.07-.6.12-.89l.12-.57.12-.44.12-.37.12-.32.12-.29.13-.25.12-.24.12-.218.12-.2.12-.19c.04-.06.08-.11.13-.17l.12-.17.12-.16c.04-.05.08-.1.12-.14.04-.05.08-.1.12-.14l.12-.14.12-.124.12-.12c.04-.04.08-.075.12-.11l.12-.11.12-.11.12-.1.12-.095.12-.1.12-.09.12-.09.12-.08c.04-.02.08-.05.12-.08l.12-.07c.04-.02.08-.05.12-.07l.12-.07.12-.06.12-.07.12-.06.12-.06.12-.06c.04-.02.08-.04.12-.057l.13-.05.12-.06.12-.05.12-.05.12-.05.12-.04.12-.04.12-.04.12-.04.13-.03.12-.04.12-.04.12-.03.13-.03.12-.03.12-.03.12-.03.13-.03.12-.02.12-.02.12-.02.12-.02.12-.01.12-.017.12-.015.12-.01.12-.01.12-.01.12-.01.12-.01.12-.01.12-.01h.12l.12-.01.12-.01c.04 0 .08-.01.12-.01h.24l.12-.003h.6l.12.01h.12l.12.007.12.01.12.006.12.01.12.01.05.01h.07l.12.01.12.01.12.01.12.01.13.012.12.01.12.012.12.01.12.01.12.01.12.01.12.012.12.02.12.02.12.02.13.02.12.02.12.02.12.02.12.02.12.026.12.024.12.02.12.025.12.03.12.03.12.024.12.03.12.03.12.03.12.03.12.03.12.03.12.03.12.03.12.03.12.03.13.035.12.03.12.04.12.04.12.04.12.04.12.04.12.04.12.04.12.04.12.04.12.04.12.05.12.045.12.048.12.05.12.045.12.04.12.05.12.05.12.047.12.05.12.05.13.05.12.05.12.05.12.057.12.06.12.06.12.06.12.05.12.06.13.06.12.06.12.06.12.06.12.06.12.06.12.06.12.06.12.06v-5.3l-.12-.03-.12-.03-.12-.03-.12-.03-.12-.03-.12-.02-.12-.027-.12-.03-.12-.03-.13-.02-.12-.03-.12-.03-.12-.027-.12-.023-.12-.02-.12-.03-.12-.03-.12-.03-.12-.02-.12-.02-.13-.02-.12-.02-.12-.02-.12-.03-.12-.02-.12-.02-.12-.02-.12-.02-.12-.03-.12-.02-.12-.02-.12-.02-.12-.02-.125-.024-.12-.02-.12-.02-.12-.02-.12-.02-.12-.02-.12-.02-.12-.02-.12-.02-.12-.01-.12-.02-.12-.02-.12-.02-.12-.02-.12-.015-.12-.02-.12-.02-.12-.02-.12-.02-.12-.02-.12-.02-.12-.02-.12-.015-.12-.02-.12-.01-.12-.02-.12-.014-.12-.02-.12-.012-.12-.015-.12-.01-.12-.01-.12-.01-.12-.01-.12-.02-.12-.01-.12-.01-.12-.01-.12-.01-.12-.01-.13-.01-.12-.01-.12-.01-.12-.01h-.12l-.12-.01h-.12l-.12-.01h-.48l-.12-.01h-.12l-.12-.01-.12-.01h-.12l-.12-.01H55.08l-.127.004h-.12l-.12.004h-.12l-.12.01h-.36l-.12.004h-.125l-.12.01h-.24l-.12.01-.12.01-.12.01-.12.004-.12.01-.12.01-.12.01-.12.01-.12.01-.12.01-.12.01-.12.01-.12.01-.12.01-.12.01-.12.01-.12.01-.12.02-.12.01-.12.015-.12.01-.12.01-.12.015-.12.01-.12.02-.12.02-.12.013-.125.02-.12.01-.12.02-.12.01-.12.02-.12.02-.12.02-.12.02-.12.02-.12.03-.12.02-.12.02-.12.02-.12.023-.125.02-.12.023-.12.022-.12.03-.12.02-.12.03-.12.02-.12.03-.12.03-.12.03-.12.03-.12.04-.12.03-.12.03-.12.03-.12.03-.12.04-.12.03-.12.04-.12.04-.12.04-.12.035-.12.04-.127.04-.12.045-.12.04-.12.04-.12.05-.12.04-.12.05-.12.05-.12.05-.12.05-.12.05-.12.05-.12.05-.12.057-.12.05-.12.05-.12.06-.12.06-.12.06-.12.06c-.04.02-.08.04-.12.07l-.12.06-.12.06-.12.07c-.04.02-.08.04-.12.07l-.12.062-.12.07-.12.07-.12.074c-.04.02-.08.05-.12.08l-.12.08-.12.08-.12.09-.12.08c-.04.025-.08.05-.12.08l-.12.09-.12.09-.12.09-.12.09z" fill="url(#c)"/></g></svg>