<svg xmlns="http://www.w3.org/2000/svg" width="300" height="180" viewBox="0 0 300 180"><path d="M298.032 90.5c.014 48.936-39.646 88.614-88.582 88.627-48.937.012-88.614-39.646-88.627-88.582V90.5c-.013-48.935 39.647-88.615 88.58-88.628 48.938-.013 88.616 39.647 88.63 88.583v.045z" fill="#F90"/><path d="M90 1.895C41.356 2.205 1.968 41.78 1.968 90.5c0 48.91 39.695 88.604 88.605 88.604 22.955 0 43.88-8.748 59.624-23.086l-.007-.004h.018a89.538 89.538 0 0 0 8.995-9.488H141.05a86.64 86.64 0 0 1-6.606-9.127h31.308a88.78 88.78 0 0 0 5.158-9.49h-41.635a87.208 87.208 0 0 1-3.703-9.308h49.045a88.384 88.384 0 0 0 4.56-28.103c0-6.513-.706-12.862-2.042-18.975H122.97a88.6 88.6 0 0 1 2.53-9.308h49.062a88.41 88.41 0 0 0-3.82-9.487H129.27a84.845 84.845 0 0 1 5.084-9.307h31.285a88.946 88.946 0 0 0-6.878-9.488H141.32a82.132 82.132 0 0 1 8.888-8.95c-15.746-14.34-36.676-23.09-59.636-23.09h-.57z" fill="#C00"/><path d="M289.143 136.82c.482 0 .95.125 1.41.37.46.247.813.602 1.07 1.063.255.456.383.937.383 1.435a2.9 2.9 0 0 1-.38 1.424c-.25.455-.604.81-1.06 1.063-.45.25-.928.375-1.424.375s-.972-.126-1.426-.375a2.71 2.71 0 0 1-1.063-1.063 2.908 2.908 0 0 1-.377-1.424c0-.498.127-.98.384-1.435.258-.46.614-.813 1.07-1.062.463-.245.932-.37 1.413-.37m0 .475c-.4 0-.793.104-1.176.31-.38.208-.677.5-.89.89a2.36 2.36 0 0 0-.01 2.381c.214.377.51.673.888.885a2.403 2.403 0 0 0 2.378.001c.377-.21.672-.507.883-.884a2.4 2.4 0 0 0-.007-2.382 2.193 2.193 0 0 0-.895-.888c-.38-.208-.77-.31-1.17-.31m-1.256 3.974v-3.082h1.062c.36 0 .62.028.783.088.162.057.29.154.388.297.096.14.145.29.145.45 0 .227-.08.423-.242.59a.953.953 0 0 1-.64.28c.11.045.197.102.265.164.125.12.275.323.455.61l.375.603h-.606l-.272-.485c-.215-.382-.388-.62-.52-.718-.092-.07-.225-.105-.398-.105h-.293v1.31h-.5m.495-1.737h.604c.287 0 .482-.044.587-.13a.42.42 0 0 0 .16-.34.405.405 0 0 0-.076-.245.448.448 0 0 0-.212-.162c-.09-.035-.255-.055-.497-.055h-.563v.932" fill="#FCB340"/><path d="M119.975 115.92l1.18-8.02c-.645 0-1.593.28-2.43.28-3.285 0-3.695-1.756-3.437-3.038l3.236-16.13h4.992l1.03-9.103h-4.706l.958-5.517h-9.842c-.208.208-5.568 31.022-5.568 34.776 0 5.554 3.118 8.026 7.516 7.987 3.442-.03 6.125-.982 7.07-1.237zm2.987-15.288c0 13.332 8.8 16.5 16.297 16.5 6.92 0 10.55-1.605 10.55-1.605l1.66-9.1s-5.847 2.378-10.6 2.378c-10.13 0-8.355-7.554-8.355-7.554l19.463.06s1.24-6.11 1.24-8.602c0-6.217-3.388-13.85-13.746-13.85-9.486.003-16.51 10.224-16.51 21.774zm16.546-13.325c5.324 0 4.342 5.984 4.342 6.47h-10.474c0-.62.99-6.47 6.132-6.47zm59.738 28.61l1.69-10.284s-4.633 2.32-7.808 2.32c-6.693 0-9.378-5.11-9.378-10.6 0-11.137 5.758-17.265 12.168-17.265 4.808 0 8.665 2.7 8.665 2.7l1.54-9.994s-4.554-3.29-9.456-3.308c-14.745-.058-23.182 10.208-23.182 27.955 0 11.764 6.248 19.77 17.506 19.77 3.184 0 8.256-1.293 8.256-1.293zM68.086 79.006c-6.47 0-11.427 2.08-11.427 2.08l-1.37 8.126s4.092-1.663 10.28-1.663c3.513 0 6.083.394 6.083 3.25 0 1.733-.314 2.373-.314 2.373s-2.773-.23-4.057-.23c-9.21 0-16.73 3.48-16.73 13.98 0 8.272 5.624 10.17 9.11 10.17 6.656 0 9.29-4.204 9.443-4.216l-.077 3.488h8.306l3.706-25.98c0-11.025-9.616-11.38-12.956-11.38zm1.438 21.096c.18 1.586-.41 9.086-6.092 9.086-2.93 0-3.69-2.24-3.69-3.562 0-2.584 1.402-5.683 8.314-5.683 1.61 0 1.197.116 1.468.16zM89.87 116.9c2.126 0 14.273.54 14.273-11.994 0-11.72-11.244-9.404-11.244-14.114 0-2.342 1.832-3.08 5.183-3.08 1.33 0 6.447.423 6.447.423l1.19-8.33s-3.313-.74-8.705-.74c-6.98 0-14.063 2.785-14.063 12.317 0 10.802 11.812 9.717 11.812 14.267 0 3.036-3.3 3.286-5.844 3.286-4.4 0-8.363-1.51-8.377-1.438l-1.26 8.245c.23.07 2.675 1.157 10.588 1.157zm187.193-45.45l-1.705 12.708s-3.553-4.905-9.112-4.905c-10.46 0-15.85 10.423-15.85 22.396 0 7.73 3.845 15.306 11.7 15.306 5.65 0 8.784-3.94 8.784-3.94l-.415 3.364h9.178l7.207-44.862-9.787-.07zm-4.052 24.7c0 4.983-2.467 11.64-7.58 11.64-3.396 0-4.988-2.85-4.988-7.324 0-7.315 3.285-12.14 7.432-12.14 3.394 0 5.137 2.33 5.137 7.824zM17.005 116.417l5.743-33.87.844 33.87h6.5l12.124-33.87-5.37 33.87h9.657l7.437-44.922-15.342-.117-9.126 27.504-.25-27.387h-14.06l-7.544 44.922h9.387z" fill="#006"/><path d="M162.357 116.48c2.746-15.614 3.724-27.946 11.732-25.392 1.15-6.044 3.89-11.3 5.142-13.858 0 0-.396-.59-2.87-.59-4.226 0-9.867 8.575-9.867 8.575l.843-5.3h-8.786l-5.884 36.565h9.69zm56.649-37.474c-6.472 0-11.43 2.08-11.43 2.08l-1.37 8.126s4.096-1.663 10.28-1.663c3.515 0 6.084.394 6.084 3.25 0 1.733-.313 2.373-.313 2.373s-2.77-.23-4.055-.23c-9.21 0-16.73 3.48-16.73 13.98 0 8.272 5.623 10.17 9.108 10.17 6.655 0 9.292-4.204 9.443-4.216l-.078 3.488h8.31l3.704-25.98c0-11.025-9.616-11.38-12.954-11.38zm1.436 21.096c.18 1.586-.41 9.086-6.092 9.086-2.932 0-3.692-2.24-3.692-3.562 0-2.584 1.402-5.683 8.315-5.683 1.61 0 1.2.116 1.47.16zm21.08 16.378c1.508-11.487 4.3-27.615 11.73-25.392 1.15-6.044.042-6.028-2.432-6.028-4.228 0-5.164.154-5.164.154l.844-5.3h-8.785l-5.884 36.566h9.692z" fill="#006"/><path d="M122.434 113.06l1.18-8.02c-.644 0-1.593.276-2.43.276-3.284 0-3.646-1.746-3.437-3.037l2.653-16.363h4.99l1.206-8.87h-4.706l.958-5.516h-9.434c-.208.21-5.57 31.024-5.57 34.776 0 5.555 3.12 8.03 7.518 7.99 3.444-.03 6.126-.983 7.072-1.237zm2.989-15.29c0 13.332 8.8 16.5 16.297 16.5 6.92 0 9.965-1.547 9.965-1.547l1.662-9.1s-5.264 2.32-10.018 2.32c-10.13 0-8.357-7.553-8.357-7.553h19.172s1.238-6.113 1.238-8.604c0-6.216-3.094-13.79-13.452-13.79-9.485.002-16.507 10.223-16.507 21.774zm16.544-13.325c5.324 0 4.342 5.983 4.342 6.467h-10.475c0-.618.99-6.467 6.132-6.467zm59.74 28.61l1.688-10.285s-4.63 2.32-7.806 2.32c-6.693 0-9.377-5.11-9.377-10.6 0-11.136 5.758-17.263 12.168-17.263 4.808 0 8.666 2.7 8.666 2.7l1.54-9.994s-5.72-2.315-10.625-2.315c-10.89 0-21.485 9.448-21.485 27.192 0 11.766 5.72 19.537 16.98 19.537 3.182 0 8.252-1.292 8.252-1.292zM70.547 76.143c-6.47 0-11.428 2.08-11.428 2.08l-1.37 8.126s4.093-1.664 10.28-1.664c3.513 0 6.083.395 6.083 3.25 0 1.734-.315 2.374-.315 2.374s-2.77-.232-4.054-.232c-8.16 0-16.73 3.482-16.73 13.98 0 8.272 5.623 10.17 9.108 10.17 6.656 0 9.525-4.32 9.678-4.332l-.31 3.605h8.306l3.706-25.98c0-11.022-9.615-11.377-12.955-11.377zm2.02 21.154c.18 1.587-.994 9.026-6.674 9.026-2.93 0-3.692-2.238-3.692-3.562 0-2.58 1.404-5.68 8.317-5.68 1.608 0 1.78.173 2.05.217zm19.763 16.741c2.126 0 14.274.54 14.274-11.995 0-11.72-11.245-9.404-11.245-14.112 0-2.343 1.832-3.08 5.182-3.08 1.33 0 6.447.422 6.447.422l1.19-8.33s-3.313-.74-8.705-.74c-6.98 0-14.063 2.785-14.063 12.317 0 10.8 11.812 9.716 11.812 14.266 0 3.037-3.3 3.284-5.843 3.284-4.4 0-8.363-1.51-8.377-1.438l-1.258 8.246c.228.07 2.672 1.16 10.586 1.16zm187.522-45.37l-2.035 12.627s-3.55-4.905-9.11-4.905c-8.644 0-15.85 10.422-15.85 22.397 0 7.73 3.844 15.304 11.7 15.304 5.65 0 8.784-3.94 8.784-3.94l-.414 3.366h9.176l7.207-44.863-9.458.015zm-4.38 24.62c0 4.983-2.468 11.64-7.583 11.64-3.396 0-4.987-2.85-4.987-7.324 0-7.314 3.285-12.14 7.43-12.14 3.396 0 5.138 2.332 5.138 7.824zM19.466 113.555l5.743-33.87.842 33.87h6.5l12.125-33.87-5.37 33.87h9.657l7.438-44.923H41.467l-9.3 27.563-.485-27.563H17.915l-7.545 44.923h9.096zm145.352.062c2.746-15.616 3.255-28.296 9.808-25.975 1.147-6.044 2.254-8.382 3.506-10.94 0 0-.587-.123-1.82-.123-4.224 0-7.354 5.77-7.354 5.77l.84-5.3h-8.783l-5.885 36.567h9.688zm58.657-37.474c-6.47 0-11.428 2.08-11.428 2.08l-1.368 8.126s4.092-1.664 10.28-1.664c3.512 0 6.08.395 6.08 3.25 0 1.734-.313 2.374-.313 2.374s-2.77-.232-4.055-.232c-8.158 0-16.73 3.482-16.73 13.98 0 8.272 5.623 10.17 9.108 10.17 6.656 0 9.525-4.32 9.677-4.332l-.31 3.605h8.308l3.705-25.98c0-11.022-9.615-11.377-12.955-11.377zm2.024 21.154c.18 1.587-.997 9.026-6.68 9.026-2.93 0-3.69-2.238-3.69-3.562 0-2.58 1.404-5.68 8.316-5.68 1.608 0 1.78.173 2.053.217zm18.524 16.32C246.77 98 247.28 85.32 253.83 87.642c1.15-6.044 2.257-8.382 3.508-10.94 0 0-.587-.123-1.82-.123-4.224 0-7.354 5.77-7.354 5.77l.84-5.3h-8.783l-5.884 36.567h9.687zm45.082-5.642c.48 0 .95.123 1.406.373.46.242.817.598 1.073 1.06.257.457.383.934.383 1.433 0 .494-.126.97-.38 1.425-.25.455-.603.812-1.058 1.063-.454.25-.93.376-1.424.376-.498 0-.974-.126-1.43-.376a2.682 2.682 0 0 1-1.057-1.063 2.86 2.86 0 0 1 .003-2.857c.258-.46.616-.815 1.073-1.06.46-.25.933-.372 1.412-.372m0 .472c-.4 0-.793.104-1.176.313-.383.204-.68.5-.895.885-.214.38-.322.78-.322 1.194s.104.81.313 1.187c.213.377.51.673.89.886.38.208.774.313 1.19.313.41 0 .81-.105 1.187-.313.378-.213.674-.51.884-.886.21-.38.314-.774.314-1.188s-.106-.814-.32-1.195a2.166 2.166 0 0 0-.894-.885 2.41 2.41 0 0 0-1.17-.313m-1.256 3.976v-3.083h1.06c.362 0 .626.03.786.088.162.055.29.154.388.297a.78.78 0 0 1 .146.45.821.821 0 0 1-.244.59.945.945 0 0 1-.637.28.91.91 0 0 1 .26.162c.124.122.276.326.456.61l.377.605h-.61l-.27-.485c-.216-.383-.39-.62-.52-.718-.092-.072-.225-.107-.4-.107h-.29v1.31h-.503m.498-1.735h.604c.29 0 .484-.043.588-.13a.414.414 0 0 0 .16-.34.405.405 0 0 0-.075-.243.453.453 0 0 0-.213-.164c-.09-.034-.254-.052-.498-.052h-.565v.93" fill="#FFF"/></svg>