<svg width="54" height="59" viewBox="0 0 54 59" xmlns="http://www.w3.org/2000/svg" xmlns:xlink="http://www.w3.org/1999/xlink"><defs><path id="a" d="M53.185 34.55V.024H0v34.528h53.185z"/><path id="c" d="M53.173 40.495H0V.101h53.173z"/></defs><g fill="none" fill-rule="evenodd"><g transform="translate(0 .21)"><mask id="b" fill="#fff"><use xlink:href="#a"/></mask><path d="M42.906.023H10.28C4.602.023 0 4.453 0 9.92v16.377l1.48-1.665a1.72 1.72 0 0 1 1.569-.544 1.67 1.67 0 0 1 1.285 1.021l2.255 5.704.416-.968a1.666 1.666 0 0 1 1.135-.951 1.736 1.736 0 0 1 1.471.301l2.146 1.646 3.303-20.42c.12-.741.755-1.307 1.532-1.366.777-.06 1.496.403 1.736 1.117.178.531 3.722 11.14 4.755 17.988.24-.134.516-.211.804-.217h.038c.608 0 1.17.315 1.468.826l.536.917 1.09-1.596a1.703 1.703 0 0 1 1.395-.732h.013c.557 0 1.08.266 1.393.71l2.061 2.92 4.116-4.622c.36-.405.905-.614 1.455-.558.552.056 1.039.37 1.303.838.607 1.073 2.208 4.014 2.959 6.398a29.312 29.312 0 0 0 1.656-1.64 1.727 1.727 0 0 1 2.62.132l1.948 2.595 5.247.42V9.92c0-5.465-4.602-9.896-10.279-9.896" fill="#62C8D5" mask="url(#b)"/></g><g transform="translate(0 18.13)"><mask id="d" fill="#fff"><use xlink:href="#c"/></mask><path d="M45.66 18.714l-1.217-1.622a27.91 27.91 0 0 1-.382.357c-1.663 1.522-2.871 2.303-4.132 1.787-.305-.124-1.293-.643-1.183-2.066.042-.6-.738-2.594-1.827-4.778l-3.914 4.396a1.715 1.715 0 0 1-1.373.564 1.7 1.7 0 0 1-1.299-.708l-1.882-2.667-1.225 1.795a1.7 1.7 0 0 1-1.465.73 1.695 1.695 0 0 1-1.41-.825l-.345-.59-.824 1.57c-.351.67-1.134 1.022-1.893.848-.758-.174-1.294-.826-1.295-1.576l-.004-2.337v-.043c.078-2.934-1.401-8.78-2.75-13.448l-2.6 16.075a1.636 1.636 0 0 1-1.052 1.262c-.56.21-1.192.117-1.662-.243l-2.662-2.041-1.182 2.754a1.687 1.687 0 0 1-1.557 1.003h-.023a1.683 1.683 0 0 1-1.551-1.045l-2.756-6.971L0 13.365v6.04c0 5.466 4.602 9.896 10.28 9.896h3.235v11.194l11.628-11.194h17.763c5.51 0 10.007-4.174 10.267-9.417l-6.287-.504a1.7 1.7 0 0 1-1.225-.666" fill="#6D6E6E" mask="url(#d)"/></g></g></svg>