<svg width="73" height="144" viewBox="0 0 73 144" xmlns="http://www.w3.org/2000/svg" xmlns:xlink="http://www.w3.org/1999/xlink"><title>Group</title><defs><path id="a" d="M0 .486v142.832h72.324V.486z"/></defs><g transform="translate(.082 -.062)" fill="none" fill-rule="evenodd"><mask id="b" fill="#fff"><use xlink:href="#a"/></mask><path d="M69.464 60.13c-4.9.857-9.823-1.896-11.691-6.518-2.022-5.01.066-10.735 4.856-13.318l5.07-2.734-5.482-1.775c-2.3-.746-4.122-2.42-5-4.597a8 8 0 0 1 .055-6.154 7.99 7.99 0 0 1 4.392-4.311 7.96 7.96 0 0 1 2.952-.564l4.523-.027-2.474-3.781C60.17 6.415 49.275.486 37.52.486h-2.696C15.624.486 0 16.11 0 35.31v71.242c0 6.688 5.44 12.127 12.127 12.127h14.896v17.253c0 4.072 3.315 7.386 7.387 7.386h2.463c4.073 0 7.387-3.314 7.387-7.386v-17.256h15.958c6.685 0 12.127-5.439 12.127-12.127V59.633l-2.881.497zm-30.128 75.8a2.465 2.465 0 0 1-2.463 2.462H34.41a2.464 2.464 0 0 1-2.461-2.462v-17.236h7.387v17.236zM34.824 5.41h2.696c8.82 0 17.079 3.893 22.748 10.575-.151.052-.296.112-.444.168a12.87 12.87 0 0 0-7.08 6.951 12.879 12.879 0 0 0-.09 9.92 12.75 12.75 0 0 0 4.193 5.445c-4.471 4.307-6.054 10.992-3.64 16.98 2.363 5.85 8.068 9.64 14.214 9.75v31.267H4.924V35.31c0-16.487 13.413-29.9 29.9-29.9zm25.394 108.342H12.127c-3.972 0-7.203-3.234-7.203-7.203v-5.159h62.497v5.159c0 3.972-3.232 7.203-7.203 7.203z" fill="#FFF" mask="url(#b)"/></g></svg>