<svg width="122" height="145" viewBox="0 0 122 145" xmlns="http://www.w3.org/2000/svg" xmlns:xlink="http://www.w3.org/1999/xlink"><title>Group</title><defs><path id="a" d="M.021.141v144.564h121.067V.141z"/></defs><g transform="translate(0 -.062)" fill="none" fill-rule="evenodd"><mask id="b" fill="#fff"><use xlink:href="#a"/></mask><path d="M39.37 129.088V101.73c19.26-1.247 34.551-17.311 34.551-36.881v-.204a2.406 2.406 0 0 0-2.275-2.402c.387-1.51.59-3.066.59-4.661 0-9.846-7.637-17.938-17.298-18.675A18.705 18.705 0 0 0 36.962 25.44c-8.41 0-15.68 5.557-17.98 13.467-9.66.739-17.296 8.829-17.296 18.675 0 1.595.202 3.152.589 4.661A2.406 2.406 0 0 0 0 64.645v.204c0 19.57 15.29 35.634 34.55 36.88v27.359a22.81 22.81 0 0 0-17.813 12.084 2.41 2.41 0 0 0 2.131 3.533h36.185a2.41 2.41 0 0 0 2.131-3.534 22.81 22.81 0 0 0-17.813-12.083zm28.045-71.506c0 1.611-.268 3.17-.796 4.654H40.39a13.688 13.688 0 0 1-.805-4.654c0-7.583 5.934-13.693 13.512-13.91.135-.005.269-.006.404-.006 7.672 0 13.913 6.242 13.913 13.916zM36.962 30.258a13.895 13.895 0 0 1 12.993 8.928 18.624 18.624 0 0 0-9.88 5.33 18.81 18.81 0 0 0-3.114 4.26 18.772 18.772 0 0 0-3.116-4.26 18.628 18.628 0 0 0-9.88-5.331 13.9 13.9 0 0 1 12.997-8.927zM20.421 43.666c.135 0 .269 0 .407.005 7.574.217 13.508 6.327 13.508 13.91a13.859 13.859 0 0 1-.805 4.655H7.303a13.779 13.779 0 0 1-.798-4.654c0-7.674 6.242-13.916 13.916-13.916zM4.894 67.055h64.133C67.891 83.753 53.943 96.99 36.961 96.99c-16.983 0-30.93-13.237-32.067-29.935zm18.54 72.83a17.99 17.99 0 0 1 13.527-6.104 17.99 17.99 0 0 1 13.527 6.104H23.433z" fill="#FFF" mask="url(#b)"/><path d="M119.605 7.554L102.257.326a2.411 2.411 0 0 0-3.307 1.856l-2.674 17.234h-18.76L74.42 7.302a2.41 2.41 0 1 0-4.668 1.193l2.792 10.921H58.829a2.41 2.41 0 0 0-2.399 2.624l1.266 14.11a2.411 2.411 0 0 0 2.614 2.186 2.41 2.41 0 0 0 2.185-2.615l-.251-2.795h45.21l-1.47 16.367H75.727a2.409 2.409 0 1 0 0 4.819h29.826l-.52 5.783H78.296a2.41 2.41 0 1 0 0 4.819h26.303l-1.144 12.739H75.297a2.41 2.41 0 0 0 0 4.82h27.724l-.934 10.388H67.378a2.41 2.41 0 0 0-4.52 1.384l.345 3.402a21.682 21.682 0 0 0 6.98 14.098A21.688 21.688 0 0 0 82.44 117.1v14.915a17.405 17.405 0 0 0-13.067 9.157 2.407 2.407 0 0 0 2.132 3.532h26.602a2.409 2.409 0 0 0 2.132-3.532 17.401 17.401 0 0 0-12.98-9.145V117.1a21.679 21.679 0 0 0 12.254-5.555 21.683 21.683 0 0 0 6.983-14.095l6.775-75.409a2.412 2.412 0 0 0-2.4-2.625h-9.718l2.087-13.46 14.51 6.047a2.41 2.41 0 1 0 1.855-4.449zm-24.076 16.68l-.6 3.872H79.737l-.99-3.871h16.781zm-34.064 0h12.309l.99 3.872H61.81l-.346-3.871zM76.39 139.886a12.59 12.59 0 0 1 8.416-3.212c3.164 0 6.14 1.175 8.415 3.212h-16.83zm8.46-27.465c-8.651 0-15.783-6.378-16.794-14.94h33.587c-.996 8.55-8.134 14.94-16.793 14.94zm23.386-88.185l-.348 3.87h-8.082l.6-3.87h7.83z" fill="#FFF" mask="url(#b)"/></g></svg>