<svg width="154" height="154" viewBox="0 0 154 154" xmlns="http://www.w3.org/2000/svg" xmlns:xlink="http://www.w3.org/1999/xlink"><title>Group</title><defs><path id="a" d="M.022.348v152.785H153.36V.348H.022z"/></defs><g fill="none" fill-rule="evenodd"><path d="M113.138 63.539c-3.66-.06-6.173 2.416-8.194 4.41-1.83 1.804-3.043 2.892-4.35 2.857-1.23-.035-2.168-1.1-3.599-2.833-1.674-2.031-3.76-4.56-7.337-4.665-3.532-.105-5.86 2.204-7.912 4.238-1.899 1.884-3.165 3.026-4.737 3.028h-.003c-1.552 0-2.78-1.146-4.613-3.03-1.934-1.988-4.338-4.46-7.989-4.46a.83.83 0 0 0-.07.002c-3.811.032-6.264 2.719-8.236 4.877-1.766 1.933-2.938 3.11-4.298 3.11h-.007c-1.362-.005-2.507-1.182-4.23-3.12-1.875-2.11-4.206-4.733-7.833-4.733h-.041a2.522 2.522 0 0 0 .013 5.043h.026c1.273 0 2.386 1.15 4.066 3.04 1.902 2.14 4.268 4.802 7.986 4.812h.021c3.682 0 6.088-2.634 8.021-4.752 1.831-2.003 3.053-3.221 4.556-3.235 1.464-.006 2.624 1.106 4.4 2.933 1.977 2.03 4.435 4.557 8.228 4.557h.008c3.76-.003 6.269-2.49 8.284-4.49 1.74-1.724 2.894-2.779 4.148-2.779h.066c1.227.037 2.165 1.1 3.595 2.833 1.675 2.032 3.761 4.56 7.338 4.666 3.573.114 6.047-2.342 8.042-4.309 1.882-1.857 3.128-2.99 4.563-2.957a2.517 2.517 0 0 0 2.565-2.476 2.523 2.523 0 0 0-2.477-2.567zm17.052 41.748c-3.767-.117-6.27 2.375-8.482 4.569-1.824 1.806-3.398 3.368-5.333 3.381-1.5-.032-2.577-1.15-4.203-2.968-1.857-2.077-4.17-4.66-8.069-4.729l-.146-.001c-3.823 0-6.495 2.634-8.648 4.757-1.765 1.74-3.288 3.238-4.934 3.196-1.447-.042-2.505-1.239-4.112-3.187-1.803-2.187-4.046-4.907-7.852-5.018-3.763-.117-6.271 2.375-8.483 4.568-1.828 1.815-3.407 3.38-5.351 3.382h-.003c-1.792 0-3.166-1.28-5.219-3.388-2.083-2.143-4.675-4.806-8.57-4.806h-.073c-4.067.035-6.713 2.932-8.84 5.259-1.975 2.165-3.292 3.48-4.878 3.48h-.008c-1.59-.005-2.875-1.323-4.804-3.493-2.029-2.281-4.543-5.109-8.44-5.099a2.52 2.52 0 0 0 .015 5.043h.015c1.505-.02 2.753 1.282 4.64 3.407 2.05 2.305 4.599 5.174 8.56 5.186h.024c3.923 0 6.408-2.722 8.601-5.122 2.047-2.24 3.415-3.602 5.158-3.618h.027c1.648 0 2.976 1.241 4.96 3.28 2.13 2.19 4.782 4.914 8.832 4.914h.007c4.018-.003 6.723-2.687 8.898-4.844 1.98-1.963 3.28-3.149 4.784-3.107 1.447.042 2.504 1.237 4.11 3.185 1.803 2.186 4.047 4.907 7.854 5.02 3.803.116 6.362-2.417 8.625-4.647 1.814-1.79 3.376-3.347 5.162-3.305 1.616.029 2.725 1.177 4.4 3.049 1.829 2.046 4.108 4.592 7.906 4.65h.04c4.017-.005 6.723-2.689 8.898-4.845 1.98-1.963 3.286-3.144 4.785-3.109a2.517 2.517 0 0 0 2.593-2.447 2.52 2.52 0 0 0-2.445-2.593z" fill="#FFF"/><g transform="translate(0 -.062)"><mask id="b" fill="#fff"><use xlink:href="#a"/></mask><path d="M150.836 134.15h-8.505v-29.503c0-6.603-5.372-11.975-11.977-11.975h-3.691v-30.76c0-5.91-4.809-10.719-10.72-10.719H86.06V26.466a2.522 2.522 0 0 0-2.52-2.523H79.2v-3.766c3.334-1.069 5.756-4.199 5.756-7.884 0-3.863-4.917-9.498-6.425-11.132a2.52 2.52 0 0 0-3.707 0C73.318 2.795 68.4 8.431 68.4 12.293c0 3.685 2.422 6.815 5.757 7.884v3.768h-4.34a2.52 2.52 0 0 0-2.522 2.52v24.728h-29.88c-5.91 0-10.72 4.809-10.72 10.72V84.1a2.52 2.52 0 1 0 5.044 0V61.913a5.684 5.684 0 0 1 5.676-5.677h78.528a5.685 5.685 0 0 1 5.677 5.677v30.76H23.003c-6.603 0-11.976 5.37-11.976 11.974v20.693a2.521 2.521 0 1 0 5.043 0v-20.693a6.94 6.94 0 0 1 6.933-6.932h107.351a6.94 6.94 0 0 1 6.933 6.932v29.504H2.52A2.522 2.522 0 0 0 0 136.672c0 9.077 7.384 16.461 16.46 16.461h120.436c9.077 0 16.463-7.384 16.463-16.46a2.522 2.522 0 0 0-2.523-2.523zM73.444 12.293c0-.868 1.397-3.194 3.235-5.532 1.837 2.338 3.234 4.664 3.234 5.532a3.238 3.238 0 0 1-3.234 3.235 3.238 3.238 0 0 1-3.235-3.235zm-1.106 38.9h8.68V28.988h-8.68v22.205zm64.558 96.897H16.461c-5.429 0-9.986-3.81-11.137-8.896h142.71c-1.15 5.086-5.707 8.896-11.138 8.896z" fill="#FFF" mask="url(#b)"/></g></g></svg>