<svg width="20" height="17" viewBox="0 0 20 17" xmlns="http://www.w3.org/2000/svg"><title>strikethrough</title><g fill="#6D6E6E" fill-rule="evenodd"><path d="M9.641 16.652c-1.364 0-2.549-.333-3.553-1-1.005-.668-1.69-1.53-2.059-2.588l1.886-.69a4.055 4.055 0 0 0 1.495 1.748c.66.43 1.419.644 2.277.644.982 0 1.756-.234 2.323-.701.568-.468.851-1.139.851-2.013 0-.843-.318-1.518-.954-2.024-.637-.506-1.53-.966-2.68-1.38a27.94 27.94 0 0 1-1.368-.529 10.03 10.03 0 0 1-1.242-.655c-.468-.284-.84-.575-1.116-.875A3.868 3.868 0 0 1 4.8 5.463a3.764 3.764 0 0 1-.288-1.483c0-1.12.445-2.062 1.334-2.829C6.736.383 7.94 0 9.457 0c1.242 0 2.277.264 3.105.793.828.53 1.365 1.223 1.61 2.082l-1.84.621c-.214-.475-.582-.866-1.104-1.173-.521-.307-1.157-.46-1.909-.46-.843 0-1.51.188-2 .563-.491.376-.737.894-.737 1.553 0 .353.088.675.265.966.176.291.452.552.828.782.375.23.724.414 1.046.552.322.138.767.314 1.334.529.706.26 1.288.51 1.748.748.46.237.959.555 1.495.954.537.399.943.893 1.22 1.483.275.59.413 1.262.413 2.013 0 1.441-.49 2.576-1.472 3.404-.981.828-2.254 1.242-3.818 1.242z"/><path d="M1.5 8.946H19a1 1 0 0 0 0-2H1.5a1 1 0 1 0 0 2z"/></g></svg>